#!OML:ASF F:\VICON\USERDATA\INSTALL\rory3\rory3.ASF
:FULLY-SPECIFIED
:DEGREES
196
root -0.584219 21.9032 1.41005 17.6329 -6.2243 -1.29162
lowerback -2.22735 0.0615621 3.54056
upperback -5.95149 0.160592 1.54445
thorax -4.90268 -0.047513 -0.384831
lowerneck -13.5903 -1.26159 -1.68912
upperneck 15.8936 -1.47283 0.556585
head 7.12463 -0.76054 0.31012
rclavicle 1.97791e-014 -1.03368e-014
rhumerus -43.0767 14.0019 -90.9301
rradius 51.1186
rwrist 10.6777
rhand -23.4513 -44.682
rfingers 7.12502
rthumb 3.00726 -74.6405
lclavicle 1.97791e-014 -1.03368e-014
lhumerus -41.9832 -13.6425 87.024
lradius 54.647
lwrist 20.8951
lhand -37.8634 -28.7611
lfingers 7.12502
lthumb -10.9076 0.935613
rfemur -38.8519 8.1891 15.4183
rtibia 48.4406
rfoot 19.8178 0.484291
rtoes -19.2647
lfemur -31.7058 0.159843 -16.9521
ltibia 39.4485
lfoot 11.2439 -0.171151
ltoes -15.2135
197
root -0.583745 21.9248 1.41775 17.8184 -6.44124 -0.981229
lowerback -2.48763 0.0526518 3.1728
upperback -5.93626 0.131881 1.51727
thorax -4.73778 -0.0436848 -0.207526
lowerneck -14.1463 -1.30998 -1.25677
upperneck 16.5233 -1.47775 -0.234503
head 7.41793 -0.810329 -0.0246753
rclavicle -7.65321e-015 -5.1684e-015
rhumerus -42.7953 13.3291 -90.8486
rradius 50.6826
rwrist 10.1719
rhand -23.6099 -44.4925
rfingers 7.12502
rthumb 2.85414 -74.4531
lclavicle -7.65321e-015 -5.1684e-015
lhumerus -42.3249 -13.5184 87.3306
lradius 53.0319
lwrist 20.828
lhand -37.3668 -29.0121
lfingers 7.12502
lthumb -10.4285 0.709235
rfemur -39.1113 8.27227 14.9477
rtibia 48.3758
rfoot 19.7993 0.196916
rtoes -18.1884
lfemur -31.6122 0.359353 -17.4355
ltibia 38.3777
lfoot 12.1725 0.029178
ltoes -15.4149
198
root -0.588097 21.9281 1.42938 18.1068 -6.7166 -0.753668
lowerback -2.82755 0.0527659 2.81433
upperback -6.03461 0.117837 1.50987
thorax -4.64749 -0.0347917 -0.0145689
lowerneck -13.9611 -1.18791 -1.17093
upperneck 16.6716 -1.30385 -0.386772
head 7.43144 -0.736903 -0.0697867
rclavicle -7.50412e-015 3.61788e-014
rhumerus -42.79 12.6807 -90.8597
rradius 50.3275
rwrist 9.96576
rhand -23.3086 -45.2799
rfingers 7.12502
rthumb 3.14506 -75.2364
lclavicle -7.50412e-015 3.61788e-014
lhumerus -42.7822 -13.0562 87.3503
lradius 51.4426
lwrist 19.2176
lhand -36.396 -28.6887
lfingers 7.12502
lthumb -9.49186 1.07755
rfemur -39.4069 8.50192 14.5408
rtibia 48.0842
rfoot 19.5357 0.0104671
rtoes -17.9282
lfemur -31.6526 0.755201 -17.8674
ltibia 37.4337
lfoot 13.1305 0.00275524
ltoes -16.3263
199
root -0.594241 21.9213 1.43434 18.4449 -7.01718 -0.63111
lowerback -3.01408 0.0698499 2.50288
upperback -6.26233 0.139524 1.54789
thorax -4.78065 -0.0117945 0.199685
lowerneck -13.3901 -1.08025 -1.21621
upperneck 16.5562 -1.15566 -0.391269
head 7.29307 -0.669157 -0.0445985
rclavicle 4.82053e-015 1.47101e-014
rhumerus -43.0216 12.094 -90.8909
rradius 49.8914
rwrist 9.85505
rhand -23.3064 -45.8101
rfingers 7.12502
rthumb 3.14717 -75.7666
lclavicle 4.82053e-015 1.47101e-014
lhumerus -43.596 -12.9291 87.7067
lradius 49.9754
lwrist 18.7305
lhand -36.1147 -29.2835
lfingers 7.12502
lthumb -9.22051 0.494896
rfemur -39.6984 8.82111 14.2365
rtibia 47.5788
rfoot 19.105 -0.07255
rtoes -17.8972
lfemur -31.8446 1.24914 -18.1816
ltibia 36.6843
lfoot 13.8841 0.215608
ltoes -16.9037
200
root -0.593788 21.9059 1.44471 18.9918 -7.42551 -0.616203
lowerback -3.43282 0.148086 2.36839
upperback -6.48442 0.234927 1.59577
thorax -4.77676 0.0417279 0.32473
lowerneck -13.0768 -0.992372 -1.29774
upperneck 16.5506 -1.01519 -0.437626
head 7.23598 -0.611406 -0.0303492
rclavicle 4.96962e-015 -1.59028e-014
rhumerus -43.2157 11.6491 -90.897
rradius 49.6246
rwrist 9.45748
rhand -23.2586 -46.4311
rfingers 7.12502
rthumb 3.19338 -76.3869
lclavicle 4.96962e-015 -1.59028e-014
lhumerus -44.307 -12.7755 88.0446
lradius 48.6571
lwrist 18.0998
lhand -36.1976 -29.2932
lfingers 7.12502
lthumb -9.30052 0.48166
rfemur -40.1115 9.00652 14.0145
rtibia 46.872
rfoot 18.5587 0.187584
rtoes -18.6951
lfemur -32.3488 1.86113 -18.4641
ltibia 36.1373
lfoot 14.5122 0.938976
ltoes -16.891
201
root -0.589728 21.8763 1.46436 19.6897 -7.78476 -0.781578
lowerback -4.18043 0.232497 2.514
upperback -6.56687 0.321423 1.66484
thorax -4.44105 0.08163 0.316124
lowerneck -13.3183 -0.865809 -1.30685
upperneck 16.7933 -0.819009 -0.521635
head 7.35662 -0.527275 -0.03839
rclavicle 2.68359e-015 2.38542e-015
rhumerus -43.0914 11.3685 -90.9126
rradius 49.3896
rwrist 8.91906
rhand -22.9408 -47.2476
rfingers 7.12502
rthumb 3.50029 -77.1986
lclavicle 2.68359e-015 2.38542e-015
lhumerus -44.6578 -12.6251 88.297
lradius 47.2524
lwrist 17.35
lhand -36.1068 -29.6979
lfingers 7.12502
lthumb -9.21289 0.0807889
rfemur -40.5337 9.02879 14.0137
rtibia 46.02
rfoot 17.837 0.57812
rtoes -20.2458
lfemur -33.0312 2.54396 -18.6161
ltibia 35.7285
lfoot 15.1781 1.82471
ltoes -15.9582
202
root -0.584784 21.8279 1.47838 20.342 -7.79356 -1.09204
lowerback -4.81164 0.208023 2.9053
upperback -6.65215 0.262349 1.82217
thorax -4.17815 0.0394743 0.261573
lowerneck -13.5979 -0.687547 -1.46986
upperneck 17.1262 -0.54854 -0.439588
head 7.51485 -0.403092 0.0411853
rclavicle -1.09332e-015 9.54166e-015
rhumerus -42.9001 11.1878 -90.9177
rradius 48.8902
rwrist 8.65563
rhand -23.3251 -47.1149
rfingers 7.12502
rthumb 3.12911 -77.0717
lclavicle -1.09332e-015 9.54166e-015
lhumerus -44.9981 -12.5599 88.6511
lradius 45.7087
lwrist 16.4358
lhand -35.9774 -30.5128
lfingers 7.12502
lthumb -9.08802 -0.728615
rfemur -40.8174 8.86954 14.296
rtibia 45.1076
rfoot 17.1681 0.663878
rtoes -21.1909
lfemur -33.6859 3.09554 -18.5408
ltibia 35.3607
lfoot 15.8847 2.18035
ltoes -15.3724
203
root -0.57645 21.7705 1.49322 20.8884 -7.48618 -1.21387
lowerback -5.41221 0.108089 3.26831
upperback -6.76495 0.0985137 1.93418
thorax -3.96522 -0.0551684 0.173321
lowerneck -13.5917 -0.563503 -1.64979
upperneck 17.2712 -0.34853 -0.388933
head 7.56107 -0.315667 0.108096
rclavicle 1.20265e-014 -3.97569e-015
rhumerus -42.8015 10.8511 -90.8571
rradius 48.2679
rwrist 8.7288
rhand -23.6784 -47.0614
rfingers 7.12502
rthumb 2.78791 -77.0229
lclavicle 1.20265e-014 -3.97569e-015
lhumerus -45.5092 -12.4812 88.9513
lradius 44.6909
lwrist 16.0042
lhand -35.2616 -28.5783
lfingers 7.12502
lthumb -8.39726 1.23479
rfemur -40.9595 8.43274 14.5167
rtibia 44.2145
rfoot 16.9497 0.480181
rtoes -21.3021
lfemur -34.3147 3.3104 -18.5304
ltibia 35.0686
lfoot 16.2945 2.19852
ltoes -16.3929
204
root -0.564955 21.7082 1.51764 21.1547 -6.88688 -1.06183
lowerback -5.86326 -0.0753039 3.56404
upperback -6.77617 -0.177671 1.91284
thorax -3.73376 -0.204672 -0.0208327
lowerneck -13.7465 -0.514203 -1.62217
upperneck 17.3918 -0.261931 -0.49531
head 7.62755 -0.283774 0.077168
rclavicle 5.36719e-015 1.03368e-014
rhumerus -42.7864 10.4346 -90.8279
rradius 47.9132
rwrist 8.67942
rhand -23.1987 -47.8066
rfingers 7.12502
rthumb 3.25121 -77.7616
lclavicle 5.36719e-015 1.03368e-014
lhumerus -46.0534 -12.703 89.3209
lradius 43.8586
lwrist 15.8059
lhand -34.2145 -24.209
lfingers 7.12502
lthumb -7.38666 5.64208
rfemur -40.7302 7.71628 14.6229
rtibia 43.3393
rfoot 16.6863 -0.122241
rtoes -20.7762
lfemur -34.641 2.99582 -18.6036
ltibia 34.7497
lfoot 16.299 2.13746
ltoes -18.2669
205
root -0.563432 21.6208 1.52228 22.0134 -7.58975 -1.4239
lowerback -6.47136 0.213218 3.76357
upperback -6.98529 0.174631 1.9531
thorax -3.60709 -0.0369135 -0.0801074
lowerneck -13.9357 -0.507703 -1.68521
upperneck 17.6515 -0.231155 -0.504783
head 7.74687 -0.276523 0.0869783
rclavicle -1.32192e-014 -2.8625e-014
rhumerus -43.043 9.98676 -90.8211
rradius 47.8548
rwrist 8.50172
rhand -22.9648 -48.184
rfingers 7.12502
rthumb 3.47709 -78.1353
lclavicle -1.32192e-014 -2.8625e-014
lhumerus -46.5904 -13.0048 89.7323
lradius 42.932
lwrist 15.5878
lhand -33.5583 -23.2808
lfingers 7.12502
lthumb -6.75314 6.59155
rfemur -41.4763 7.82801 14.8252
rtibia 42.4948
rfoot 16.7924 -0.141528
rtoes -21.2192
lfemur -35.4793 3.45602 -18.4306
ltibia 34.5209
lfoot 16.3312 2.43557
ltoes -18.9066
206
root -0.553726 21.535 1.53338 22.3513 -7.29782 -1.72834
lowerback -6.76076 0.213062 4.35991
upperback -7.12544 0.141852 2.03455
thorax -3.5995 -0.0792329 -0.328237
lowerneck -13.7533 -0.531273 -1.86398
upperneck 17.8353 -0.233368 -0.473293
head 7.77583 -0.287993 0.126849
rclavicle -1.87355e-014 4.05521e-014
rhumerus -43.3473 9.41327 -90.7353
rradius 47.6301
rwrist 8.25224
rhand -22.9991 -48.2206
rfingers 7.12502
rthumb 3.44393 -78.1725
lclavicle -1.87355e-014 4.05521e-014
lhumerus -47.2855 -13.2309 90.2023
lradius 42.0215
lwrist 15.0545
lhand -33.648 -25.8054
lfingers 7.12502
lthumb -6.83977 4.06412
rfemur -41.3801 7.21944 15.4117
rtibia 41.6962
rfoot 16.6717 -0.796987
rtoes -21.3085
lfemur -35.8642 3.10362 -17.9237
ltibia 34.2623
lfoot 16.5177 2.66045
ltoes -17.5215
207
root -0.542072 21.4328 1.5377 22.8166 -7.06866 -2.24355
lowerback -7.0184 0.282583 5.13871
upperback -7.33797 0.19763 2.15918
thorax -3.68603 -0.0876995 -0.628954
lowerneck -13.5611 -0.507759 -1.77333
upperneck 17.9532 -0.174293 -0.726977
head 7.78011 -0.279258 0.0347475
rclavicle 1.3418e-015 -4.77083e-015
rhumerus -43.5589 8.83989 -90.6344
rradius 47.3412
rwrist 7.76657
rhand -22.7195 -48.0842
rfingers 7.12502
rthumb 3.71393 -78.0315
lclavicle 1.3418e-015 -4.77083e-015
lhumerus -48.0639 -13.6421 90.8062
lradius 41.2054
lwrist 14.7497
lhand -33.6458 -26.7742
lfingers 7.12502
lthumb -6.83769 3.09538
rfemur -41.4941 6.62661 16.1851
rtibia 40.977
rfoot 16.4878 -1.68489
rtoes -20.6415
lfemur -36.4156 2.77425 -17.1776
ltibia 34.1493
lfoot 16.4545 2.8511
ltoes -16.7474
208
root -0.534671 21.3096 1.54342 22.878 -6.56148 -2.36092
lowerback -6.93854 0.167603 5.54485
upperback -7.40149 0.0387162 2.20839
thorax -3.81087 -0.188112 -0.808732
lowerneck -13.5966 -0.413947 -1.60179
upperneck 18.0665 -0.0364649 -0.948579
head 7.82319 -0.224696 -0.0523698
rclavicle -3.60297e-014 5.1684e-014
rhumerus -43.7543 8.40778 -90.5679
rradius 47.2375
rwrist 7.19909
rhand -22.7284 -47.3251
rfingers 7.12502
rthumb 3.70541 -77.2726
lclavicle -3.60297e-014 5.1684e-014
lhumerus -48.6692 -13.9977 91.2898
lradius 40.5522
lwrist 14.5047
lhand -33.1584 -26.3041
lfingers 7.12502
lthumb -6.36713 3.58018
rfemur -41.2082 6.01922 16.5965
rtibia 40.3541
rfoot 16.0427 -2.72471
rtoes -20.209
lfemur -36.554 2.15897 -16.7231
ltibia 34.0489
lfoot 16.1923 2.58173
ltoes -16.9974
209
root -0.534628 21.1712 1.54946 22.9534 -6.46022 -2.64632
lowerback -7.01354 0.20013 5.84652
upperback -7.27966 0.0601205 2.28511
thorax -3.64275 -0.183194 -0.897338
lowerneck -13.8774 -0.370865 -1.5665
upperneck 18.1504 0.0227682 -0.948786
head 7.90091 -0.195509 -0.0526198
rclavicle 8.44835e-016 -4.77083e-015
rhumerus -43.7263 8.0199 -90.4933
rradius 47.1743
rwrist 6.49776
rhand -23.0748 -46.6707
rfingers 7.12502
rthumb 3.37086 -76.6238
lclavicle 8.44835e-016 -4.77083e-015
lhumerus -48.939 -14.1886 91.5622
lradius 40.0152
lwrist 14.1522
lhand -32.7175 -25.9875
lfingers 7.12502
lthumb -5.94147 3.90921
rfemur -41.0258 5.83383 17.041
rtibia 39.8375
rfoot 15.4795 -3.50533
rtoes -20.0601
lfemur -36.6802 1.89324 -16.1793
ltibia 34.069
lfoot 15.7702 2.48233
ltoes -17.0094
